<?xml version="1.0" standalone="no"?>
<!DOCTYPE svg PUBLIC "-//W3C//DTD SVG 20010904//EN"
 "http://www.w3.org/TR/2001/REC-SVG-20010904/DTD/svg10.dtd">
<svg version="1.0" xmlns="http://www.w3.org/2000/svg"
 width="512.000000pt" height="512.000000pt" viewBox="0 0 512.000000 512.000000"
 preserveAspectRatio="xMidYMid meet">

<g transform="translate(0.000000,512.000000) scale(0.100000,-0.100000)"
fill="#000000" stroke="none">
<path d="M2500 5107 c-14 -7 -571 -361 -1238 -787 -1086 -692 -1215 -777
-1233 -811 -10 -21 -19 -52 -19 -69 0 -50 35 -107 80 -130 39 -20 54 -20 2470
-20 2416 0 2431 0 2470 20 45 23 80 81 80 132 -1 82 0 81 -660 502 -338 215
-880 560 -1205 767 -324 207 -604 384 -622 393 -39 19 -89 21 -123 3z m130
-817 c45 -23 80 -80 80 -131 0 -74 -76 -149 -151 -149 -49 0 -112 42 -134 89
-59 132 76 257 205 191z"/>
<path d="M250 1970 l0 -1020 235 0 235 0 0 1020 0 1020 -235 0 -235 0 0 -1020z"/>
<path d="M1020 1970 l0 -1020 255 0 255 0 0 1020 0 1020 -255 0 -255 0 0
-1020z"/>
<path d="M1830 1970 l0 -1020 730 0 730 0 0 1020 0 1020 -730 0 -730 0 0
-1020z"/>
<path d="M3590 1970 l0 -1020 255 0 255 0 0 1020 0 1020 -255 0 -255 0 0
-1020z"/>
<path d="M4400 1970 l0 -1020 235 0 235 0 0 1020 0 1020 -235 0 -235 0 0
-1020z"/>
<path d="M88 629 c-70 -36 -78 -68 -78 -304 0 -238 8 -268 80 -305 39 -20 54
-20 2470 -20 2416 0 2431 0 2470 20 72 37 80 67 80 305 0 238 -8 268 -80 305
-39 20 -53 20 -2472 20 -2403 -1 -2433 -1 -2470 -21z"/>
</g>
</svg>
